<svg id="Слой_1" data-name="Слой 1" xmlns="http://www.w3.org/2000/svg" viewBox="0 0 33.96 97.03"><defs><style>.cls-1{stroke:#000;stroke-miterlimit:10;stroke-width:0.5px;}.cls-2{fill:#fff;}</style></defs><title>fish</title><path class="cls-1" d="M47.56,90l.29-61.52c0-1.42.79-2.56,1.76-2.56h0c1,0,1.75,1.16,1.74,2.58L51.07,90c0,1.41-.8,2.56-1.77,2.55h0C48.33,92.53,47.55,91.38,47.56,90Z" transform="translate(-32.63 -2.58)"/><path d="M32.76,22.3l33.74.15a.08.08,0,0,1,.07.09c-.67,5.83-8,10.4-17,10.36s-16.3-4.68-16.93-10.51A.09.09,0,0,1,32.76,22.3Z" transform="translate(-32.63 -2.58)"/><circle class="cls-2" cx="12.95" cy="10.43" r="2.34"/><path d="M57.3,6C55,8.37,55,6,55,6l.35-3.45c-9,.49-22,9.55-22.59,19.72l33.85.16C66.12,13.36,65.37,5.08,59.31,3A9,9,0,0,1,57.3,6Z" transform="translate(-32.63 -2.58)"/><circle class="cls-2" cx="12.95" cy="10.43" r="2.34"/><path d="M32.71,34q16.82,9.67,33.73.16a.08.08,0,0,1,.08.09c-.68,5.83-7.45,9.23-16.4,9.19s-16.87-3.52-17.49-9.35A.08.08,0,0,1,32.71,34Z" transform="translate(-32.63 -2.58)"/><path d="M33.55,99.48c-.06,0,18.9-9.06,27.92.13,0,0,.07-.07.07-.14-.5-8.75-6.08-13.52-13.48-14C40.94,85.09,35.34,99,33.49,99.34,33.49,99.48,33.62,99.48,33.55,99.48Z" transform="translate(-32.63 -2.58)"/><path d="M33.81,44.32Q48.9,53,64.06,44.46a.07.07,0,0,1,.07.08c-.6,5.22-6.68,8.27-14.71,8.24S34.3,49.63,33.74,44.39A.07.07,0,0,1,33.81,44.32Z" transform="translate(-32.63 -2.58)"/><path d="M36.09,55.05q12.77,7.26,25.6.12a.06.06,0,0,1,.06.07c-.51,4.37-5.65,6.92-12.45,6.89S36.5,59.5,36,55.12C36,55.09,36.06,55.05,36.09,55.05Z" transform="translate(-32.63 -2.58)"/><path d="M38.38,64.42q11.61,7.24,23.28.11a.06.06,0,0,1,.05.06c-.47,4.38-5.14,6.93-11.32,6.9s-11.64-2.63-12.06-7A.05.05,0,0,1,38.38,64.42Z" transform="translate(-32.63 -2.58)"/><path d="M40.66,73.78q9.29,7.25,18.63.09s0,0,0,.07c-.38,4.37-4.12,6.93-9.07,6.9s-9.3-2.61-9.64-7C40.62,73.82,40.64,73.78,40.66,73.78Z" transform="translate(-32.63 -2.58)"/></svg>