<svg id="Слой_1" data-name="Слой 1" xmlns="http://www.w3.org/2000/svg" viewBox="0 0 75.9 97.38"><defs><style>.cls-1{fill:#a9d9ed;}.cls-1,.cls-3,.cls-4,.cls-5,.cls-6{stroke:#686868;}.cls-1,.cls-2,.cls-3,.cls-4,.cls-5,.cls-6{stroke-miterlimit:10;stroke-width:0.25px;}.cls-2{fill:#7d9da8;stroke:#a3a3a3;}.cls-3{fill:#84aab7;}.cls-4{fill:#9fc2ce;}.cls-5{fill:#fcfcfc;}.cls-6{fill:#a0a0a0;}.cls-7{font-size:11.93px;font-family:Impact, Impact;}</style></defs><title>milky</title><polygon class="cls-1" points="1.33 75.89 36.78 97.16 36.78 47.53 1.33 29.81 1.33 75.89"/><path class="cls-2" d="M89.37,31.61l-25.05-7s0,0-.06,0L50.57,49.25s0,.08.06.06L89.37,31.7A0,0,0,0,0,89.37,31.61Z" transform="translate(-13.71 -1.84)"/><path class="cls-3" d="M88.8,31.45l-28.63-.12,8-13.86L88.89,31.25A.11.11,0,0,1,88.8,31.45Z" transform="translate(-13.71 -1.84)"/><polygon class="cls-4" points="36.78 97.16 75.78 75.89 75.78 29.81 36.78 47.53 36.78 97.16"/><polygon class="cls-1" points="36.78 47.53 54.51 15.63 19.38 0.16 1.33 29.81 36.78 47.53"/><path class="cls-1" d="M68.22,17.47,89.49,31.65Z" transform="translate(-13.71 -1.84)"/><ellipse class="cls-5" cx="40.99" cy="24.56" rx="9.02" ry="5.64" transform="translate(-12.99 48.44) rotate(-63.5)"/><ellipse class="cls-6" cx="38.89" cy="23.59" rx="6.94" ry="4.34" transform="translate(-13.29 46.03) rotate(-63.5)"/><ellipse class="cls-5" cx="36.48" cy="22.3" rx="9.02" ry="5.64" transform="translate(-13.47 43.15) rotate(-63.5)"/><path class="cls-6" d="M15.05,44.3,50.5,62.87Z" transform="translate(-13.71 -1.84)"/><path class="cls-6" d="M15.05,56.49,50.5,77Z" transform="translate(-13.71 -1.84)"/><line class="cls-6" x1="37.43" y1="61.07" x2="37.43" y2="61.07"/><text class="cls-7" transform="translate(1.81 54.72) rotate(27.31) scale(1.42 1)">MILK</text></svg>